<?xml version="1.0" encoding="UTF-8" standalone="no"?>
<svg
   xmlns:dc="http://purl.org/dc/elements/1.1/"
   xmlns:cc="http://creativecommons.org/ns#"
   xmlns:rdf="http://www.w3.org/1999/02/22-rdf-syntax-ns#"
   xmlns:svg="http://www.w3.org/2000/svg"
   xmlns="http://www.w3.org/2000/svg"
   width="115.84676"
   height="108.74415"
   viewBox="0 0 30.651125 28.771889"
   version="1.1"
   id="svg5119">
  <defs
     id="defs5113" />
  <metadata
     id="metadata5116">
    <rdf:RDF>
      <cc:Work
         rdf:about="">
        <dc:format>image/svg+xml</dc:format>
        <dc:type
           rdf:resource="http://purl.org/dc/dcmitype/StillImage" />
        <dc:title></dc:title>
      </cc:Work>
    </rdf:RDF>
  </metadata>
  <g
     id="layer1"
     transform="translate(-64.175823,-256.645)">
    <g
       id="g1633">
      <rect
         rx="6.8721189"
         y="257.3125"
         x="64.843323"
         height="27.43689"
         width="29.316124"
         id="rect6797"
         style="display:inline;opacity:1;fill:#ceffe1;fill-opacity:1;fill-rule:nonzero;stroke:#000000;stroke-width:1.33500004;stroke-linecap:butt;stroke-linejoin:round;stroke-miterlimit:4;stroke-dasharray:4.00500021, 1.33500007;stroke-dashoffset:13.35000038;stroke-opacity:1" />
      <g
         transform="matrix(0.50177088,0,0,0.50293279,52.866644,216.32788)"
         id="layer1-1">
        <path
           id="path5111"
           d="m 53.554132,100.55689 c 11.836584,-2.192041 20.440066,-0.47429 24.695703,6.50133 2.163614,5.06897 0.98341,8.60528 -1.777342,11.31886 0.887745,-6.62192 -3.315039,-7.7998 -6.828737,-7.39 -12.238602,2.61933 -14.989813,-3.65894 -16.18317,-8.93348 -0.362678,3.63066 -3.965456,11.50486 -13.971524,9.47348 -6.105543,-2.16322 -9.922181,0.46144 -9.061979,6.94531 -1.978332,-1.55863 -4.174967,-6.23148 -1.422135,-11.93933 4.127832,-6.22554 12.395841,-8.128912 24.549184,-5.97617 z"
           style="display:inline;fill:#000000;fill-opacity:1;stroke:#ffffff;stroke-width:0.26458332px;stroke-linecap:butt;stroke-linejoin:miter;stroke-opacity:1" />
      </g>
    </g>
  </g>
</svg>
